<?xml version="1.0" encoding="utf-8"?>
<!-- Generator: Adobe Illustrator 16.0.0, SVG Export Plug-In . SVG Version: 6.00 Build 0)  -->
<!DOCTYPE svg PUBLIC "-//W3C//DTD SVG 1.1//EN" "http://www.w3.org/Graphics/SVG/1.1/DTD/svg11.dtd">
<svg version="1.1" id="Layer_1" xmlns="http://www.w3.org/2000/svg" xmlns:xlink="http://www.w3.org/1999/xlink" x="0px" y="0px"
	 width="2337.907px" height="349.798px" viewBox="0 0 2337.907 349.798" enable-background="new 0 0 2337.907 349.798"
	 xml:space="preserve">
<g>
	<g>
		<defs>
			<rect id="SVGID_1_" y="-1210.203" width="2340" height="1560"/>
		</defs>
		<clipPath id="SVGID_2_">
			<use xlink:href="#SVGID_1_"  overflow="visible"/>
		</clipPath>
		<path display="none" clip-path="url(#SVGID_2_)" fill="#1A1722" d="M2418.789,9.47c-59.143-38.572-159.429-7.357-159.429-7.357
			l-51.813-15.428c0,0-125.614-44.359-200.829,27c0,0-125.358-63.645-244.93,7.713c0,0-30.855-59.785-111.855-50.143
			c0,0-57.858-92.57-177.43-23.143c0,0-83.734-77.143-196.152-34.715c0,0-8.663-0.439-20.649-4.08
			c-82.149-14.68-148.041-7.658-182.127-1.557c-14.377,5.08-25.389,5.637-25.389,5.637
			C935.769-129.03,852.034-51.888,852.034-51.888c-119.571-69.428-177.429,23.143-177.429,23.143
			c-81-9.643-111.856,50.143-111.856,50.143C443.177-49.96,317.82,13.685,317.82,13.685c-75.215-71.359-200.831-27-200.831-27
			L65.177,2.112C-7.577-43.815-58.782,49.858-58.782,49.858L-35.64,387.47l1618.715,5.143l882-12.857
			C2465.075,379.755,2477.934,48.04,2418.789,9.47"/>
		<path display="none" clip-path="url(#SVGID_2_)" fill="#251F2D" d="M2411.771,135.88c21.065-29.076,31.32-64.904-15.183-89.602
			c-90.786-48.213-193.24-9.643-193.24-9.643c-117.248-90.643-245.35-17.357-245.35-17.357c-56.453-1.928-95.535,40.5-95.535,40.5
			s-41.254-44.357-132.445-54c-91.192-9.643-162.291,28.287-162.291,28.287c-50.108-38.572-97.535-10.287-97.535-10.287
			c-78.164-69.428-206.642-48.857-206.642-48.857c-5.676-2.113-10.944-5.146-15.84-8.965
			c-29.925-14.803-98.779-39.023-176.234,0.344c-4.77,3.656-9.893,6.57-15.398,8.621c0,0-128.478-20.57-206.643,48.857
			c0,0-47.426-28.285-97.535,10.287c0,0-71.098-37.93-162.29-28.287s-132.445,54-132.445,54s-39.082-42.428-95.536-40.5
			c0,0-128.102-73.285-245.349,17.357c0,0-102.455-38.57-193.24,9.643c-67.562,35.881-15.331,95.254,15.814,123.287l-20.78,225.619
			l2499.427,38.57l57.857-289.348L2411.771,135.88z"/>
		<path clip-path="url(#SVGID_2_)" fill="#2C2632" d="M2338.679,186.897c-32.539-73.285-98.24-58.107-98.24-58.107l-0.006,0.014
			c-27.494-40.65-82.43-44.406-82.43-44.406c-34.714-21.215-61.714,9.643-61.714,9.643c-42.428-3.857-54,17.357-54,17.357
			c-28.928-54-76.214-44.357-76.214-44.357c-103.214-32.785-180.286,44.357-180.286,44.357
			c-42.428-55.93-110.339-57.857-110.339-57.857c-81.595-15.041-123.018,81-123.018,81c-19.286-54-108-44.357-108-44.357
			c-75.215-81-191.08-30.855-191.08-30.855s-89.684-106.555-189.6,0c0,0-115.866-50.145-191.08,30.855c0,0-88.715-9.643-108,44.357
			c0,0-41.423-96.041-123.018-81c0,0-67.911,1.928-110.339,57.857c0,0-77.073-77.143-180.286-44.357c0,0-47.286-9.643-76.214,44.357
			c0,0-11.572-21.215-54-17.357c0,0-27-30.857-61.715-9.643c0,0-51.269,3.504-79.538,40.389h-0.007
			C9.608,74.245-52.3,144.407-52.3,144.407l-83.625,150.49l339.429,169.715l2261.571-84.857L2338.679,186.897z"/>
		<path display="none" clip-path="url(#SVGID_2_)" fill="#36323B" d="M-20.211,294.897c0,0,15.429-81,88.715-57.855
			c0,0,68.142-88.715,207.642-38.572c0,0,178.072-104.143,359.358,11.572c0,0,54-54,119.571-15.43c0,0,41.144-48.857,95.144-38.57
			c0,0,153.664-118.287,282.547-25.715c0,0,128.246-59.145,208.277,30.855c0,0,190.604-51.428,290.889,69.43
			c0,0,79.724-51.43,163.291-25.715c0,0,114.424-100.285,245.566-15.428c0,0,82.286-25.715,115.715,33.428
			c0,0,120.064-28.285,182.175,66.857l95.539,128.572L-81.925,395.183L-20.211,294.897z"/>
	</g>
</g>
</svg>
