<?xml version="1.0" encoding="utf-8"?>
<!-- Generator: Adobe Illustrator 16.0.0, SVG Export Plug-In . SVG Version: 6.00 Build 0)  -->
<!DOCTYPE svg PUBLIC "-//W3C//DTD SVG 1.1//EN" "http://www.w3.org/Graphics/SVG/1.1/DTD/svg11.dtd">
<svg version="1.1" id="Layer_1" xmlns="http://www.w3.org/2000/svg" xmlns:xlink="http://www.w3.org/1999/xlink" x="0px" y="0px"
	 width="975px" height="330.907px" viewBox="0 0 975 330.907" enable-background="new 0 0 975 330.907" xml:space="preserve">
<g>
	<g>
		<path fill="#FFFFFF" d="M29.767,20.063c10.018,0.12,20.014,0.488,30.01,0.975c4.998,0.215,9.989,0.545,14.985,0.811
			c4.995,0.29,9.983,0.659,14.978,0.985c19.961,1.447,39.9,3.204,59.802,5.345c39.812,4.211,79.474,9.837,118.96,16.51l14.792,2.599
			l7.397,1.299l7.377,1.402l14.75,2.83c4.913,0.963,9.846,1.836,14.738,2.896l29.407,6.144l29.305,6.634
			c39.006,9.14,77.747,19.425,116.197,30.745l28.746,8.795l7.187,2.205l7.141,2.347l14.28,4.698l14.288,4.683
			c2.39,0.759,4.749,1.601,7.112,2.433l7.093,2.494l28.372,9.985l28.102,10.732l7.025,2.683c2.345,0.891,4.688,1.778,7,2.749
			l13.912,5.722l13.889,5.777c4.619,1.952,9.291,3.779,13.837,5.9l27.433,12.353c9.176,4.049,18.12,8.599,27.155,12.95l13.521,6.584
			l6.761,3.291c2.266,1.072,4.453,2.302,6.682,3.45c17.716,9.403,35.63,18.411,52.93,28.562
			c35.096,19.386,68.782,41.203,101.905,63.648l-0.542,0.841l-13.002-7.495l-12.939-7.574l-12.931-7.573
			c-2.136-1.291-4.354-2.447-6.542-3.653l-6.578-3.591l-26.215-14.493l-3.274-1.813l-3.316-1.734l-6.642-3.46l-13.275-6.919
			l-13.273-6.917c-4.391-2.364-8.891-4.523-13.367-6.726l-26.857-13.196c-2.247-1.082-4.457-2.235-6.729-3.269l-6.786-3.146
			l-13.57-6.293c-9.066-4.156-18.037-8.511-27.239-12.363l-27.4-11.995c-4.549-2.041-9.181-3.888-13.78-5.807l-13.822-5.716
			l-13.797-5.77c-2.29-0.989-4.613-1.892-6.935-2.799l-6.962-2.734l-27.847-10.934c-37.3-14.142-74.972-27.35-113.076-39.259
			c-38.147-11.749-76.619-22.479-115.385-32.077l-29.128-6.979l-29.243-6.491c-4.867-1.119-9.772-2.051-14.66-3.072l-14.675-3.006
			l-7.342-1.49l-7.358-1.388l-14.722-2.776c-39.272-7.313-78.756-13.587-118.426-18.452c-19.83-2.469-39.709-4.555-59.617-6.331
			c-19.906-1.726-39.861-3.149-59.825-3.766L29.767,20.063z"/>
	</g>
</g>
</svg>
