<?xml version="1.0" encoding="utf-8"?>
<!-- Generator: Adobe Illustrator 16.0.0, SVG Export Plug-In . SVG Version: 6.00 Build 0)  -->
<!DOCTYPE svg PUBLIC "-//W3C//DTD SVG 1.1//EN" "http://www.w3.org/Graphics/SVG/1.1/DTD/svg11.dtd">
<svg version="1.1" id="Layer_1" xmlns="http://www.w3.org/2000/svg" xmlns:xlink="http://www.w3.org/1999/xlink" x="0px" y="0px"
	 width="126.667px" height="137.333px" viewBox="0 0 126.667 137.333" enable-background="new 0 0 126.667 137.333"
	 xml:space="preserve">
<g>
	<g>
		<defs>
			<rect id="SVGID_1_" x="-1902.037" y="-533.684" width="2340" height="1560"/>
		</defs>
		<clipPath id="SVGID_2_">
			<use xlink:href="#SVGID_1_"  overflow="visible"/>
		</clipPath>
		
			<rect x="29.062" y="67.963" transform="matrix(0.5228 -0.8524 0.8524 0.5228 -23.4621 98.8803)" clip-path="url(#SVGID_2_)" fill="#067869" width="95.061" height="4.869"/>
		
			<rect x="36.321" y="109.812" transform="matrix(0.5228 -0.8525 0.8525 0.5228 -83.9564 96.4732)" clip-path="url(#SVGID_2_)" fill="#E6E6E5" width="15.739" height="26.828"/>
		
			<rect x="44.55" y="96.395" transform="matrix(0.5228 -0.8525 0.8525 0.5228 -68.5919 97.0859)" clip-path="url(#SVGID_2_)" fill="#CDCCCC" width="15.739" height="26.828"/>
		
			<rect x="52.78" y="82.978" transform="matrix(0.5228 -0.8525 0.8525 0.5228 -53.2274 97.6986)" clip-path="url(#SVGID_2_)" fill="#E6E6E5" width="15.739" height="26.828"/>
		
			<rect x="86.317" y="28.296" transform="matrix(0.5228 -0.8525 0.8525 0.5228 9.3905 100.1951)" clip-path="url(#SVGID_2_)" fill="#E6E6E5" width="15.74" height="26.828"/>
		
			<rect x="94.546" y="14.88" transform="matrix(0.5228 -0.8525 0.8525 0.5228 24.7536 100.8066)" clip-path="url(#SVGID_2_)" fill="#CDCCCC" width="15.739" height="26.828"/>
		
			<rect x="102.776" y="1.463" transform="matrix(0.5228 -0.8525 0.8525 0.5228 40.1181 101.4193)" clip-path="url(#SVGID_2_)" fill="#E6E6E5" width="15.739" height="26.828"/>
		
			<rect x="74.942" y="49.995" transform="matrix(0.5226 -0.8526 0.8526 0.5226 -23.455 98.9089)" clip-path="url(#SVGID_2_)" fill="#00A99D" width="3.298" height="40.807"/>
		
			<rect x="66.311" y="60.117" transform="matrix(0.5228 -0.8524 0.8524 0.5228 -23.4625 98.8807)" clip-path="url(#SVGID_2_)" fill="#067869" width="20.561" height="20.561"/>
		
			<polyline clip-path="url(#SVGID_2_)" fill="none" stroke="#FFFFFF" stroke-width="2.823" stroke-linecap="round" stroke-linejoin="round" stroke-miterlimit="10" points="
			24.996,80.726 7.342,27.923 65.413,14.83 		"/>
		<path clip-path="url(#SVGID_2_)" fill="#00A99D" d="M14.678,87.827L65.756,4.551c1.324-2.16,4.609-1.54,5.063,0.951
			c2.101,11.52,4.418,35.603-7.572,54.857c-11.949,19.189-34.236,28.119-45.41,31.545C15.407,92.649,13.35,89.995,14.678,87.827"/>
		<path clip-path="url(#SVGID_2_)" fill="#067869" d="M21.359,90.755c11.854-4.094,31.09-13.056,41.889-30.396
			c11.988-19.253,9.673-43.336,7.57-54.857C71.871,57.823,21.407,90.724,21.359,90.755"/>
		<path clip-path="url(#SVGID_2_)" fill="#00A99D" d="M10.751,22.364c3.07,1.883,4.033,5.899,2.149,8.97
			c-1.882,3.07-5.899,4.033-8.969,2.149c-3.071-1.883-4.034-5.899-2.15-8.97C3.664,21.442,7.682,20.479,10.751,22.364"/>
		<path clip-path="url(#SVGID_2_)" fill="#FFFFFF" d="M96.396,77.134c2.171,1.331,2.853,4.171,1.521,6.343
			c-1.332,2.171-4.171,2.851-6.344,1.519c-2.171-1.331-2.852-4.171-1.52-6.342S94.224,75.802,96.396,77.134"/>
	</g>
</g>
</svg>
